<svg xmlns="http://www.w3.org/2000/svg" width="59" height="69" viewBox="0 0 59 69"><g><g><path fill="#05d8d5" d="M55.898 46.242c-1.846 4.99-4.64 9.328-8.302 12.894-4.169 4.06-9.629 7.284-16.228 9.585a5.035 5.035 0 0 1-1.635.277 4.953 4.953 0 0 1-1.632-.276c-6.607-2.297-12.073-5.52-16.246-9.58-3.664-3.565-6.457-7.902-8.3-12.89C.2 37.178.39 27.182.544 19.151l.002-.124c.03-.663.05-1.359.062-2.128.056-3.778 3.069-6.902 6.857-7.113 7.9-.44 14.012-3.008 19.234-8.082l.045-.043a4.407 4.407 0 0 1 5.976 0l.045.043C37.988 6.779 44.1 9.347 52 9.787c3.79.21 6.8 3.335 6.857 7.112.012.775.032 1.471.062 2.129l.002.053c.153 8.047.343 18.061-3.023 27.16zM54.89 19.184a72.494 72.494 0 0 1-.064-2.225c-.025-1.677-1.365-3.065-3.05-3.158-4.472-.25-8.4-1.11-12.008-2.634-3.604-1.52-6.805-3.664-9.785-6.553a.373.373 0 0 0-.5 0c-2.98 2.889-6.18 5.033-9.784 6.553-3.61 1.523-7.537 2.385-12.008 2.634-1.685.093-3.025 1.48-3.05 3.158-.012.8-.033 1.53-.064 2.225l-.001.045c-.155 8.094-.33 17.27 2.761 25.633C10.872 54.424 18.1 60.988 29.43 64.926a.906.906 0 0 0 .61 0c11.317-3.945 18.538-10.513 22.076-20.075 3.1-8.38 2.93-17.563 2.775-25.667zm-8.033 15.563c0 9.414-7.683 17.073-17.125 17.073-9.443 0-17.124-7.659-17.124-17.073 0-9.413 7.681-17.072 17.124-17.072 9.442 0 17.125 7.66 17.125 17.072zm-4.033 0c0-7.197-5.873-13.052-13.092-13.052-7.22 0-13.092 5.855-13.092 13.052 0 7.198 5.873 13.053 13.092 13.053s13.092-5.855 13.092-13.053zm-5.319-5.3a2.006 2.006 0 0 1 0 2.843l-9.38 9.35c-.393.393-.91.589-1.425.589a2.012 2.012 0 0 1-1.425-.588l-3.585-3.574a2.006 2.006 0 0 1 0-2.842 2.02 2.02 0 0 1 2.851 0l2.159 2.152 7.954-7.93a2.02 2.02 0 0 1 2.851 0z"/></g></g></svg>