<svg xmlns="http://www.w3.org/2000/svg" width="55" height="69" viewBox="0 0 55 69"><g><g><path fill="#05d8d5" d="M54.25 27.075l-5.235 5.362 1.055 7.39a2.118 2.118 0 0 1-1.745 2.379l-5.936 1.031V66.11a2.11 2.11 0 0 1-1.013 1.799c-.629.385-1.415.42-2.076.093l-11.508-5.7-11.508 5.7a2.148 2.148 0 0 1-2.077-.093 2.11 2.11 0 0 1-1.012-1.8V43.238l-5.936-1.031a2.117 2.117 0 0 1-1.745-2.38l1.054-7.389-5.236-5.362a2.1 2.1 0 0 1 0-2.94l5.236-5.363-1.054-7.386a2.117 2.117 0 0 1 1.745-2.38l7.417-1.288 3.528-6.591a2.144 2.144 0 0 1 2.823-.91l6.765 3.276L34.555.218a2.144 2.144 0 0 1 2.823.908l3.53 6.592 7.416 1.289a2.117 2.117 0 0 1 1.745 2.379l-1.054 7.386 5.236 5.362c.8.82.8 2.122 0 2.941zM38.12 62.688V48.702l-.741 1.383a2.146 2.146 0 0 1-2.823.908l-6.764-3.278-6.764 3.278a2.144 2.144 0 0 1-2.823-.908l-.741-1.385v13.988l9.374-4.642a2.152 2.152 0 0 1 1.909 0zm11.626-37.084l-4.525-4.634a2.104 2.104 0 0 1-.58-1.767l.912-6.384-6.41-1.113a2.134 2.134 0 0 1-1.516-1.092l-3.052-5.698-5.845 2.832a2.152 2.152 0 0 1-1.875 0l-5.847-2.832-3.05 5.698c-.309.576-.869.98-1.517 1.092L10.03 12.82l.911 6.383a2.104 2.104 0 0 1-.58 1.767l-4.525 4.634 4.526 4.635c.458.468.671 1.12.58 1.766l-.912 6.388 6.41 1.113a2.132 2.132 0 0 1 1.518 1.092l3.05 5.696 5.846-2.833a2.146 2.146 0 0 1 1.876 0l5.846 2.833 3.05-5.696c.31-.576.87-.979 1.518-1.092l6.41-1.113-.912-6.387a2.103 2.103 0 0 1 .579-1.767zm-7.358 0c0 7.977-6.548 14.466-14.596 14.466-8.05 0-14.598-6.49-14.598-14.465s6.549-14.462 14.598-14.462c8.048 0 14.596 6.487 14.596 14.462zm-4.269 0c0-5.641-4.633-10.231-10.327-10.231-5.695 0-10.329 4.59-10.329 10.232 0 5.643 4.634 10.235 10.33 10.235 5.693 0 10.326-4.592 10.326-10.235zm-2.957-5.364a2.101 2.101 0 0 1 0 2.99l-7.814 7.74c-.417.414-.963.62-1.51.62a2.137 2.137 0 0 1-1.508-.618l-3.908-3.869a2.101 2.101 0 0 1-.002-2.99 2.148 2.148 0 0 1 3.019-.002l2.4 2.374 6.304-6.246a2.148 2.148 0 0 1 3.019 0z"/></g></g></svg>