<svg xmlns="http://www.w3.org/2000/svg" width="24" height="24" viewBox="0 0 24 24"><g><g><path fill="#183984" d="M21.103 18.728c.794.799.79 1.778-.01 2.586-.539.545-1.113 1.065-1.623 1.633-.744.835-1.673 1.104-2.741 1.044-1.554-.085-2.982-.6-4.36-1.268-3.062-1.489-5.679-3.552-7.87-6.158-1.624-1.928-2.963-4.03-3.841-6.399-.43-1.143-.735-2.315-.64-3.559.06-.764.345-1.418.91-1.953.609-.58 1.183-1.183 1.782-1.772.78-.77 1.758-.77 2.542-.006.485.475.959.959 1.438 1.438.465.47.93.93 1.394 1.398.819.826.819 1.784.005 2.602-.585.59-1.164 1.18-1.758 1.754-.155.155-.17.278-.09.47.395.938.959 1.773 1.593 2.55 1.279 1.569 2.722 2.962 4.445 4.047.37.228.779.399 1.163.609.195.11.33.074.49-.09.584-.6 1.179-1.19 1.773-1.778.779-.774 1.758-.774 2.542 0 .954.948 1.908 1.897 2.857 2.852zM15.515 8.46a6.356 6.356 0 0 0-3.636-1.814l.26-1.852a8.188 8.188 0 0 1 4.694 2.342 8.238 8.238 0 0 1 2.303 4.444l-1.843.315a6.355 6.355 0 0 0-1.778-3.435zM24 11.262l-1.843.314a11.77 11.77 0 0 0-3.3-6.367 11.787 11.787 0 0 0-6.733-3.357L12.384 0a13.584 13.584 0 0 1 7.79 3.885A13.687 13.687 0 0 1 24 11.262z"/></g></g></svg>