<svg xmlns="http://www.w3.org/2000/svg" width="56" height="59" viewBox="0 0 56 59"><g><g><path fill="#05d8d5" d="M37.239 18.015H26.066V13.47h11.173zM55.306 6.872v11.03c0 3.76-3.038 6.82-6.772 6.82H46.38v26.712c0 3.76-3.037 6.82-6.772 6.82H7.332c-3.734 0-6.771-3.06-6.771-6.82V6.876c0-3.761 3.037-6.82 6.77-6.82h41.645V.07c3.527.234 6.327 3.195 6.33 6.801zm-13.054-2.27H7.332a2.268 2.268 0 0 0-2.257 2.274v44.558a2.268 2.268 0 0 0 2.257 2.273h32.276a2.268 2.268 0 0 0 2.258-2.273V6.876c0-.797.136-1.562.386-2.273zm8.54 2.271c-.002-1.232-.988-2.24-2.212-2.27a2.27 2.27 0 0 0-2.2 2.273v13.299h2.154a2.267 2.267 0 0 0 2.257-2.273zM15.535 21.502l-6.252-5.923 3.093-3.312 2.867 2.717 4.168-4.73 3.376 3.02zm21.703 10.154H26.066v-4.547h11.173zm-21.703 3.486l-6.252-5.923 3.093-3.312 2.867 2.717 4.168-4.73 3.376 3.019zm21.703 10.154H26.066v-4.547h11.173zm-21.703 3.486L9.284 42.86l3.093-3.311 2.867 2.717 4.168-4.73 3.376 3.019z"/></g></g></svg>