<svg xmlns="http://www.w3.org/2000/svg" width="22" height="21" viewBox="0 0 22 21"><g><g><path fill="#39cddd" d="M21.782 6.05c.194.24.267.53.218.867l-.922 5.257a.99.99 0 0 1-.377.675 1.146 1.146 0 0 1-.74.266H6.504l-.267 1.495h12.824c.307 0 .574.108.801.325.227.217.34.487.34.808 0 .321-.113.59-.34.808a1.121 1.121 0 0 1-.801.325H4.878c-.34 0-.631-.136-.874-.41a1.165 1.165 0 0 1-.267-.94l.607-3.28-.923-9.211-2.623-.82a1.073 1.073 0 0 1-.668-.554A1.191 1.191 0 0 1 .045.792C.142.487.332.266.615.13c.284-.137.572-.165.863-.084l3.352 1.06c.21.065.384.186.522.363.137.176.222.377.255.602L5.8 3.903l15.204 1.688c.34.048.599.201.777.458zM6.602 17.502c.486 0 .9.17 1.24.507.34.337.51.747.51 1.23 0 .482-.17.896-.51 1.242-.34.345-.754.518-1.24.518-.485 0-.898-.173-1.238-.518-.34-.346-.51-.76-.51-1.242 0-.483.17-.893.51-1.23.34-.338.753-.507 1.239-.507zm10.371 0c.486 0 .899.17 1.239.507.34.337.51.747.51 1.23 0 .482-.17.896-.51 1.242-.34.345-.753.518-1.239.518-.486 0-.899-.173-1.238-.518-.34-.346-.51-.76-.51-1.242 0-.483.17-.893.51-1.23.34-.338.752-.507 1.238-.507z"/></g></g></svg>