<svg xmlns="http://www.w3.org/2000/svg" width="69" height="61" viewBox="0 0 69 61"><g><g><path fill="#05d8d5" d="M28.211 42.22c0 5.527-4.518 10.023-10.073 10.023-5.554 0-10.072-4.497-10.072-10.023 0-5.527 4.518-10.024 10.072-10.024 5.555 0 10.073 4.497 10.073 10.024zm-4.029 0c0-3.317-2.711-6.015-6.044-6.015-3.332 0-6.043 2.698-6.043 6.014 0 3.316 2.71 6.015 6.043 6.015s6.044-2.699 6.044-6.015zm44.589 8.018c0 5.527-4.519 10.024-10.073 10.024s-10.073-4.497-10.073-10.024c0-.686.07-1.37.203-2.018H35.232c-2.494 7-9.214 12.042-17.094 12.042-9.997 0-18.13-8.094-18.13-18.043 0-5.103 2.14-9.718 5.574-13.002L7.741 5.59C8.026 2.472 10.613.12 13.759.12h24.525a2.01 2.01 0 0 1 2.015 2.005 2.01 2.01 0 0 1-2.015 2.005h-.77c2.618 5.248 2.627 5.14 2.724 5.527l3.648 14.52h4.74V14.153c0-3.316 2.71-6.014 6.043-6.014a2.01 2.01 0 0 1 2.015 2.005 2.01 2.01 0 0 1-2.015 2.004c-1.11 0-2.015.9-2.015 2.005v10.023h10.073c1.818 0 3.522.803 4.674 2.202a5.97 5.97 0 0 1 1.252 4.992 1.946 1.946 0 0 1-.03.129l-3.086 11.388a9.975 9.975 0 0 1 3.234 7.35zM36.711 12.15h-4.47v12.028h7.492zM9.909 26.145c1.903-.968 4-1.61 6.215-1.856V10.145a2.01 2.01 0 0 1 2.014-2.005h16.886L33.01 4.13H13.76a2.001 2.001 0 0 0-2.007 1.824zM20.153 12.15v12.028h8.058V12.15zM32.24 42.22c0-7.737-6.326-14.032-14.102-14.032-7.775 0-14.101 6.295-14.101 14.032 0 7.738 6.326 14.033 14.101 14.033 7.776 0 14.102-6.295 14.102-14.033zm26.458-2.004c1.135 0 2.226.19 3.245.536l1.232-4.545H42.313A2.01 2.01 0 0 1 40.3 34.2a2.01 2.01 0 0 1 2.014-2.005h21.948l.452-1.666a2.01 2.01 0 0 0-1.986-2.344H29.521c4.113 3.31 6.748 8.371 6.748 14.033 0 .678-.039 1.347-.112 2.005h14.488a10.08 10.08 0 0 1 8.053-4.01zm6.044 10.023c0-3.316-2.711-6.014-6.044-6.014-3.332 0-6.044 2.698-6.044 6.014 0 3.316 2.712 6.014 6.044 6.014 3.333 0 6.044-2.698 6.044-6.014z"/></g></g></svg>