<svg xmlns="http://www.w3.org/2000/svg" width="20" height="19" viewBox="0 0 20 19"><g><g><path fill="#12203e" d="M19.525 7.854l-.963-.961a1.645 1.645 0 0 0-1.168-.474c-.453 0-.838.158-1.155.474l-3.774 3.766V1.64c0-.444-.163-.829-.488-1.153A1.581 1.581 0 0 0 10.822 0H9.178c-.445 0-.83.163-1.155.487a1.574 1.574 0 0 0-.488 1.153v9.02L3.761 6.892a1.574 1.574 0 0 0-1.155-.474c-.445 0-.834.158-1.168.474l-.95.96A1.589 1.589 0 0 0 0 9.02c0 .46.163.845.488 1.152l8.357 8.354c.316.316.701.474 1.155.474.445 0 .834-.158 1.168-.474l8.357-8.354c.317-.315.475-.7.475-1.152 0-.445-.158-.833-.475-1.166z"/></g></g></svg>